# Blender v2.78 (sub 0) OBJ File: 'table.blend'
# www.blender.org
mtllib table.mtl
o table_Circle
v 0.000000 -0.024582 -1.550000
v -0.306147 -0.024582 -1.489104
v -0.565685 -0.024582 -1.315686
v -0.739104 -0.024582 -1.056147
v 0.800000 -0.024582 -0.750000
v 0.739104 -0.024582 -1.056147
v 0.565685 -0.024582 -1.315686
v 0.306146 -0.024582 -1.489104
v -0.800000 -0.024582 -0.750000
v 0.000000 0.000000 -1.490000
v -0.283186 0.000000 -1.433671
v -0.523259 0.000000 -1.273259
v -0.683671 0.000000 -1.033186
v 0.740000 0.000000 -0.750000
v 0.683671 0.000000 -1.033186
v 0.523259 0.000000 -1.273259
v 0.283185 0.000000 -1.433671
v -0.740000 0.000000 -0.750000
v -0.752634 0.029165 -0.721444
v 0.000000 0.031068 -1.550000
v -0.306147 0.031068 -1.489104
v -0.565685 0.031068 -1.315686
v -0.739104 0.031068 -1.056147
v 0.800000 0.031068 -0.750000
v 0.739104 0.031068 -1.056147
v 0.565685 0.031068 -1.315686
v 0.306146 0.031068 -1.489104
v -0.800000 0.031068 -0.750000
v 0.000000 0.031068 -1.490000
v -0.283186 0.031068 -1.433671
v -0.523259 0.031068 -1.273259
v -0.683671 0.031068 -1.033186
v 0.740000 0.031068 -0.750000
v 0.683671 0.031068 -1.033186
v 0.523259 0.031068 -1.273259
v 0.283185 0.031068 -1.433671
v -0.740000 0.031068 -0.750000
v -0.752634 -0.022678 -0.721444
v -0.227806 0.000000 -1.262661
v -0.015417 0.000000 -1.304908
v -0.740000 0.000000 -0.721444
v -0.740000 0.031068 -0.721444
v -0.528170 0.000000 -0.962297
v 0.539583 0.000000 -0.749908
v 0.497336 0.000000 -0.962297
v 0.377027 0.000000 -1.142352
v -0.407861 0.000000 -1.142352
v 0.196972 0.000000 -1.262661
v -0.570417 0.000000 -0.749908
v 0.196972 0.006729 -1.262661
v 0.377027 0.006729 -1.142352
v 0.497336 0.006729 -0.962297
v 0.539583 0.006729 -0.749908
v -0.407861 0.006729 -1.142352
v -0.227806 0.006729 -1.262661
v -0.015417 0.006729 -1.304908
v -0.570417 0.006729 -0.749908
v -0.528170 0.006729 -0.962297
v 0.000096 0.006729 -0.749908
v -0.010154 -0.024527 -1.411699
v -0.263410 -0.024527 -1.361323
v -0.478111 -0.024527 -1.217865
v -0.621569 -0.024527 -1.003164
v 0.651637 -0.024527 -0.749908
v 0.601261 -0.024527 -1.003164
v 0.457803 -0.024527 -1.217865
v 0.243103 -0.024527 -1.361323
v -0.671945 -0.024527 -0.749908
v -0.671945 -0.022953 -0.726285
v -0.010154 -0.783487 -1.411699
v -0.263410 -0.783487 -1.361323
v -0.478111 -0.783487 -1.217865
v -0.621569 -0.783487 -1.003164
v -0.227806 -0.024527 -1.262661
v 0.601261 -0.783487 -1.003164
v 0.457803 -0.783487 -1.217865
v 0.243103 -0.783487 -1.361323
v -0.671945 -0.783487 -0.749908
v -0.015417 -0.024527 -1.304908
v -0.227806 -0.783487 -1.262661
v -0.015417 -0.783487 -1.304908
v -0.528170 -0.783487 -0.962297
v -0.528170 -0.024527 -0.962297
v 0.497336 -0.783487 -0.962297
v 0.377027 -0.783487 -1.142352
v -0.407861 -0.783487 -1.142352
v 0.196972 -0.783487 -1.262661
v -0.570417 -0.783487 -0.749908
v -0.407861 -0.024527 -1.142352
v 0.497336 -0.024527 -0.962297
v 0.196972 -0.024527 -1.262661
v 0.377027 -0.024527 -1.142352
v -0.570417 -0.024527 -0.749908
v -0.570417 -0.022953 -0.726285
v 0.651637 -0.783487 -0.749908
v 0.539583 -0.783487 -0.749908
v 0.539583 -0.024527 -0.749908
v 0.000096 -0.023740 -0.738096
v 0.000000 -0.024582 1.550000
v -0.306147 -0.024582 1.489104
v -0.565685 -0.024582 1.315686
v -0.739104 -0.024582 1.056147
v 0.800000 -0.024582 0.750000
v 0.739104 -0.024582 1.056147
v 0.565685 -0.024582 1.315686
v 0.306146 -0.024582 1.489104
v -0.800000 -0.024582 0.750000
v 0.000000 0.000000 1.490000
v -0.283186 0.000000 1.433671
v -0.523259 0.000000 1.273259
v -0.683671 0.000000 1.033186
v 0.740000 0.000000 0.750000
v 0.683671 0.000000 1.033186
v 0.523259 0.000000 1.273259
v 0.283185 0.000000 1.433671
v -0.740000 0.000000 0.750000
v -0.752634 0.029165 0.721444
v 0.000000 0.031068 1.550000
v -0.306147 0.031068 1.489104
v -0.565685 0.031068 1.315686
v -0.739104 0.031068 1.056147
v 0.800000 0.031068 0.750000
v 0.739104 0.031068 1.056147
v 0.565685 0.031068 1.315686
v 0.306146 0.031068 1.489104
v -0.800000 0.031068 0.750000
v 0.000000 0.031068 1.490000
v -0.283186 0.031068 1.433671
v -0.523259 0.031068 1.273259
v -0.683671 0.031068 1.033186
v 0.740000 0.031068 0.750000
v 0.683671 0.031068 1.033186
v 0.523259 0.031068 1.273259
v 0.283185 0.031068 1.433671
v -0.740000 0.031068 0.750000
v -0.752634 -0.022678 0.721444
v 0.740000 0.031068 0.000000
v 0.800000 0.031068 0.000000
v 0.740000 0.000000 0.000000
v 0.800000 -0.024582 0.000000
v -0.227806 0.000000 1.262661
v -0.015417 0.000000 1.304908
v -0.740000 0.000000 0.721444
v -0.740000 0.031068 0.721444
v -0.752634 -0.022678 0.000000
v -0.752634 0.029165 0.000000
v -0.740000 0.000000 0.000000
v -0.740000 0.031068 0.000000
v -0.528170 0.000000 0.962297
v 0.539583 0.000000 0.749908
v 0.497336 0.000000 0.962297
v 0.377027 0.000000 1.142352
v -0.407861 0.000000 1.142352
v 0.196972 0.000000 1.262661
v -0.570417 0.000000 0.749908
v 0.539583 0.000000 0.000000
v -0.570417 0.000000 0.000000
v 0.196972 0.006729 1.262661
v 0.377027 0.006729 1.142352
v 0.497336 0.006729 0.962297
v 0.539583 0.006729 0.749908
v -0.407861 0.006729 1.142352
v -0.227806 0.006729 1.262661
v -0.015417 0.006729 1.304908
v -0.570417 0.006729 0.749908
v -0.528170 0.006729 0.962297
v 0.539583 0.006729 0.000000
v 0.000096 0.006729 0.000000
v -0.570417 0.006729 0.000000
v 0.000096 0.006729 0.749908
v -0.010154 -0.024527 1.411699
v -0.263410 -0.024527 1.361323
v -0.478111 -0.024527 1.217865
v -0.621569 -0.024527 1.003164
v 0.651637 -0.024527 0.749908
v 0.601261 -0.024527 1.003164
v 0.457803 -0.024527 1.217865
v 0.243103 -0.024527 1.361323
v -0.671945 -0.024527 0.749908
v -0.671945 -0.022953 0.726285
v 0.000096 -0.023740 0.000000
v -0.010154 -0.783487 1.411699
v -0.263410 -0.783487 1.361323
v -0.478111 -0.783487 1.217865
v -0.621569 -0.783487 1.003164
v -0.227806 -0.024527 1.262661
v 0.601261 -0.783487 1.003164
v 0.457803 -0.783487 1.217865
v 0.243103 -0.783487 1.361323
v -0.671945 -0.783487 0.749908
v -0.015417 -0.024527 1.304908
v -0.227806 -0.783487 1.262661
v -0.015417 -0.783487 1.304908
v -0.528170 -0.783487 0.962297
v -0.528170 -0.024527 0.962297
v 0.497336 -0.783487 0.962297
v 0.377027 -0.783487 1.142352
v -0.407861 -0.783487 1.142352
v 0.196972 -0.783487 1.262661
v -0.570417 -0.783487 0.749908
v -0.407861 -0.024527 1.142352
v 0.497336 -0.024527 0.962297
v 0.196972 -0.024527 1.262661
v 0.377027 -0.024527 1.142352
v -0.570417 -0.024527 0.749908
v -0.570417 -0.022953 0.726285
v -0.671945 -0.022953 0.000000
v -0.570417 -0.022953 0.000000
v 0.651637 -0.024527 0.000000
v 0.651637 -0.783487 0.749908
v 0.539583 -0.783487 0.749908
v 0.539583 -0.024527 0.749908
v 0.539583 -0.024527 0.000000
v 0.000096 -0.023740 0.738096
vn 0.0000 1.0000 0.0000
vn 0.0002 -1.0000 0.0004
vn 0.0005 -0.9978 0.0661
vn -0.0003 -1.0000 0.0002
vn -0.0004 -1.0000 0.0000
vn 0.0004 -1.0000 0.0002
vn -0.0002 -1.0000 0.0003
vn 0.0004 -1.0000 0.0001
vn 0.0001 -1.0000 0.0004
vn -0.0034 -1.0000 0.0000
vn -0.0001 -1.0000 0.0004
vn -0.0004 -1.0000 0.0001
vn 0.5556 0.0000 -0.8315
vn -0.9808 0.0000 -0.1951
vn 0.0000 -1.0000 0.0000
vn -0.1951 0.0000 -0.9808
vn 0.1951 0.0000 -0.9808
vn -0.5556 0.0000 -0.8315
vn 0.0000 -0.0000 1.0000
vn 0.8315 0.0000 -0.5556
vn -0.8315 0.0000 -0.5556
vn 0.8315 0.0000 0.5556
vn 0.1951 0.0000 0.9808
vn -0.1951 0.0000 0.9808
vn 0.5556 0.0000 0.8315
vn -0.5556 0.0000 0.8315
vn 0.9808 -0.0000 0.1951
vn -0.8315 0.0000 0.5556
vn 0.9808 0.0000 -0.1951
vn 0.0000 -0.9978 0.0665
vn -0.9808 0.0000 0.1951
vn -0.0014 -1.0000 0.0000
vn -0.0015 -1.0000 0.0000
vn -0.0013 -1.0000 0.0006
vn -0.0005 -1.0000 0.0013
vn 0.0005 -1.0000 0.0013
vn 0.0012 -1.0000 0.0040
vn 0.0002 -1.0000 -0.0004
vn 0.0005 -0.9978 -0.0661
vn -0.0003 -1.0000 -0.0002
vn 0.0004 -1.0000 -0.0002
vn -0.0002 -1.0000 -0.0003
vn 0.0004 -1.0000 -0.0001
vn 0.0001 -1.0000 -0.0004
vn -0.0001 -1.0000 -0.0004
vn -0.0004 -1.0000 -0.0001
vn 0.0000 -0.0000 -1.0000
vn 0.0000 -0.9978 -0.0665
vn -0.0013 -1.0000 -0.0006
vn -0.0005 -1.0000 -0.0013
vn 0.0005 -1.0000 -0.0013
vn 0.0012 -1.0000 -0.0040
vn -0.5163 0.0000 0.8564
vn 1.0000 0.0000 0.0000
vn -1.0000 0.0000 0.0000
vn -0.0262 0.9981 0.0550
vn -0.1490 0.9888 0.0000
vn -0.5163 0.0000 -0.8564
vn -0.0262 0.9981 -0.0550
usemtl wood
s off
f 12//1 13//1 43//1 47//1
f 139//1 14//1 44//1 156//1
f 41//1 147//1 157//1 49//1
f 16//1 17//1 48//1 46//1
f 13//1 18//1 49//1 43//1
f 10//1 11//1 39//1 40//1
f 17//1 10//1 40//1 48//1
f 14//1 15//1 45//1 44//1
f 18//1 41//1 49//1
f 11//1 12//1 47//1 39//1
f 15//1 16//1 46//1 45//1
f 3//2 2//2 61//2 62//2
f 38//3 9//3 68//3 69//3
f 7//4 6//4 65//4 66//4
f 5//5 140//5 209//5 64//5
f 4//6 3//6 62//6 63//6
f 8//7 7//7 66//7 67//7
f 9//8 4//8 63//8 68//8
f 2//9 1//9 60//9 61//9
f 145//10 38//10 69//10 207//10
f 1//11 8//11 67//11 60//11
f 6//12 5//12 64//12 65//12
f 67//13 66//13 76//13 77//13
f 68//14 63//14 73//14 78//14
f 72//15 86//15 82//15 73//15
f 61//16 60//16 70//16 71//16
f 60//17 67//17 77//17 70//17
f 71//15 80//15 86//15 72//15
f 62//18 61//18 71//18 72//18
f 93//19 68//19 78//19 88//19
f 66//20 65//20 75//20 76//20
f 63//21 62//21 72//21 73//21
f 73//15 82//15 88//15 78//15
f 83//22 82//22 86//22 89//22
f 74//23 80//23 81//23 79//23
f 70//15 81//15 80//15 71//15
f 79//24 81//24 87//24 91//24
f 89//25 86//25 80//25 74//25
f 91//26 87//26 85//26 92//26
f 77//15 87//15 81//15 70//15
f 93//27 88//27 82//27 83//27
f 92//28 85//28 84//28 90//28
f 76//15 85//15 87//15 77//15
f 75//15 84//15 85//15 76//15
f 75//29 65//29 64//29 95//29
f 69//30 68//30 93//30 94//30
f 69//15 94//15 208//15 207//15
f 84//31 96//31 97//31 90//31
f 64//19 97//19 96//19 95//19
f 84//15 75//15 95//15 96//15
f 97//15 64//15 209//15 213//15
f 181//32 208//32 94//32 98//32
f 213//33 181//33 98//33 97//33
f 98//34 92//34 90//34 97//34
f 92//35 98//35 79//35 91//35
f 89//36 74//36 79//36 98//36
f 83//37 89//37 98//37 94//37 93//37
f 110//1 153//1 149//1 111//1
f 139//1 156//1 150//1 112//1
f 143//1 155//1 157//1 147//1
f 114//1 152//1 154//1 115//1
f 111//1 149//1 155//1 116//1
f 108//1 142//1 141//1 109//1
f 115//1 154//1 142//1 108//1
f 112//1 150//1 151//1 113//1
f 116//1 155//1 143//1
f 109//1 141//1 153//1 110//1
f 113//1 151//1 152//1 114//1
f 101//38 173//38 172//38 100//38
f 136//39 180//39 179//39 107//39
f 105//40 177//40 176//40 104//40
f 103//5 175//5 209//5 140//5
f 102//41 174//41 173//41 101//41
f 106//42 178//42 177//42 105//42
f 107//43 179//43 174//43 102//43
f 100//44 172//44 171//44 99//44
f 145//10 207//10 180//10 136//10
f 99//45 171//45 178//45 106//45
f 104//46 176//46 175//46 103//46
f 178//25 189//25 188//25 177//25
f 179//31 190//31 185//31 174//31
f 184//15 185//15 194//15 198//15
f 172//24 183//24 182//24 171//24
f 171//23 182//23 189//23 178//23
f 183//15 184//15 198//15 192//15
f 173//26 184//26 183//26 172//26
f 205//47 200//47 190//47 179//47
f 177//22 188//22 187//22 176//22
f 174//28 185//28 184//28 173//28
f 185//15 190//15 200//15 194//15
f 195//20 201//20 198//20 194//20
f 186//17 191//17 193//17 192//17
f 182//15 183//15 192//15 193//15
f 191//16 203//16 199//16 193//16
f 201//13 186//13 192//13 198//13
f 203//18 204//18 197//18 199//18
f 189//15 182//15 193//15 199//15
f 205//29 195//29 194//29 200//29
f 204//21 202//21 196//21 197//21
f 188//15 189//15 199//15 197//15
f 187//15 188//15 197//15 196//15
f 187//27 210//27 175//27 176//27
f 180//48 206//48 205//48 179//48
f 180//15 207//15 208//15 206//15
f 196//14 202//14 212//14 211//14
f 175//47 210//47 211//47 212//47
f 196//15 211//15 210//15 187//15
f 212//15 213//15 209//15 175//15
f 181//32 214//32 206//32 208//32
f 213//33 212//33 214//33 181//33
f 214//49 212//49 202//49 204//49
f 204//50 203//50 191//50 214//50
f 201//51 214//51 191//51 186//51
f 195//52 205//52 206//52 214//52 201//52
usemtl cushion
f 11//23 10//23 29//23 30//23
f 17//26 16//26 35//26 36//26
f 12//25 11//25 30//25 31//25
f 10//24 17//24 36//24 29//24
f 13//22 12//22 31//22 32//22
f 18//27 13//27 32//27 37//27
f 9//53 38//53 19//53 28//53
f 6//29 25//29 24//29 5//29
f 7//20 26//20 25//20 6//20
f 37//54 42//54 41//54 18//54
f 2//16 21//16 20//16 1//16
f 8//13 27//13 26//13 7//13
f 3//18 22//18 21//18 2//18
f 1//17 20//17 27//17 8//17
f 4//21 23//21 22//21 3//21
f 9//14 28//14 23//14 4//14
f 15//31 14//31 33//31 34//31
f 16//28 15//28 34//28 35//28
f 37//1 32//1 23//1 28//1
f 22//1 23//1 32//1 31//1
f 21//1 22//1 31//1 30//1
f 20//1 21//1 30//1 29//1
f 27//1 20//1 29//1 36//1
f 26//1 27//1 36//1 35//1
f 25//1 26//1 35//1 34//1
f 24//1 25//1 34//1 33//1
f 138//1 24//1 33//1 137//1
f 145//55 146//55 19//55 38//55
f 14//55 139//55 137//55 33//55
f 5//54 24//54 138//54 140//54
f 37//56 28//56 19//56 42//56
f 146//57 148//57 42//57 19//57
f 42//54 148//54 147//54 41//54
f 109//17 128//17 127//17 108//17
f 115//18 134//18 133//18 114//18
f 110//13 129//13 128//13 109//13
f 108//16 127//16 134//16 115//16
f 111//20 130//20 129//20 110//20
f 116//29 135//29 130//29 111//29
f 107//58 126//58 117//58 136//58
f 104//27 103//27 122//27 123//27
f 105//22 104//22 123//22 124//22
f 135//54 116//54 143//54 144//54
f 100//24 99//24 118//24 119//24
f 106//25 105//25 124//25 125//25
f 101//26 100//26 119//26 120//26
f 99//23 106//23 125//23 118//23
f 102//28 101//28 120//28 121//28
f 107//31 102//31 121//31 126//31
f 113//14 132//14 131//14 112//14
f 114//21 133//21 132//21 113//21
f 135//1 126//1 121//1 130//1
f 120//1 129//1 130//1 121//1
f 119//1 128//1 129//1 120//1
f 118//1 127//1 128//1 119//1
f 125//1 134//1 127//1 118//1
f 124//1 133//1 134//1 125//1
f 123//1 132//1 133//1 124//1
f 122//1 131//1 132//1 123//1
f 138//1 137//1 131//1 122//1
f 145//55 136//55 117//55 146//55
f 112//55 131//55 137//55 139//55
f 103//54 140//54 138//54 122//54
f 135//59 144//59 117//59 126//59
f 146//57 117//57 144//57 148//57
f 144//54 143//54 147//54 148//54
usemtl cloth
f 49//55 157//55 169//55 57//55
f 44//29 45//29 52//29 53//29
f 40//16 39//16 55//16 56//16
f 45//20 46//20 51//20 52//20
f 156//54 44//54 53//54 167//54
f 39//18 47//18 54//18 55//18
f 168//1 167//1 53//1 59//1
f 59//1 57//1 169//1 168//1
f 57//1 59//1 54//1 58//1
f 52//1 51//1 59//1 53//1
f 54//1 59//1 56//1 55//1
f 51//1 50//1 56//1 59//1
f 48//17 40//17 56//17 50//17
f 43//14 49//14 57//14 58//14
f 46//13 48//13 50//13 51//13
f 47//21 43//21 58//21 54//21
f 155//55 165//55 169//55 157//55
f 150//27 161//27 160//27 151//27
f 142//24 164//24 163//24 141//24
f 151//22 160//22 159//22 152//22
f 156//54 167//54 161//54 150//54
f 141//26 163//26 162//26 153//26
f 168//1 170//1 161//1 167//1
f 170//1 168//1 169//1 165//1
f 165//1 166//1 162//1 170//1
f 160//1 161//1 170//1 159//1
f 162//1 163//1 164//1 170//1
f 159//1 170//1 164//1 158//1
f 154//23 158//23 164//23 142//23
f 149//31 166//31 165//31 155//31
f 152//25 159//25 158//25 154//25
f 153//28 162//28 166//28 149//28
